<?xml version="1.0" encoding="utf-8"?>
<svg xmlns="http://www.w3.org/2000/svg" version="1.1" viewBox="0 0 100 110">
	<title>A heart encircling the initials L. L. W. and W. M.</title>
	<path d="M50.443 109.257c-.77-.735-1.292-1.345-3.595-4.19-1.775-2.195-5.95-7.664-6.996-9.166-.973-1.397-2.86-3.745-3.908-4.865-.334-.358-1.114-1.306-1.733-2.107-.618-.802-2.25-2.895-3.623-4.652-1.375-1.757-2.855-3.695-3.29-4.306-.433-.61-1.027-1.382-1.32-1.714-1.017-1.156-3.727-4.775-5.122-6.84-2.203-3.263-4.524-6.413-5.458-7.406-.47-.5-.855-.98-.857-1.07 0-.087-.367-.555-.813-1.04-.446-.483-1.267-1.557-1.824-2.387-.558-.83-1.387-1.882-1.843-2.34-.456-.455-1.012-1.18-1.235-1.608-.223-.43-.927-1.522-1.565-2.43-1.725-2.454-2.51-4.16-3.968-8.614-1.28-3.913-1.947-6.65-2.833-11.644-.597-3.355-.617-11.98-.035-14.34 1.1-4.458 2.653-7.81 4.86-10.488 5.504-6.68 13.746-9.475 20.352-6.904 2.542.99 13.432 7.872 14.553 9.197.68.807 7.84 6.268 8.993 6.86.743.383 2.164.364 2.89-.038.77-.426 2.474-2.048 4.667-4.44 3.19-3.48 13.065-9.937 17.783-11.628C77.108.167 78.035 0 80.573 0c2.65 0 5.014.402 5.977 1.015.32.204.703.37.85.37.147 0 .934.422 1.75.937 1.895 1.197 4.936 4.173 6.48 6.34 1.96 2.75 3.55 7.475 4.155 12.342.288 2.32.287 8.695 0 11.564-.37 3.665-1.3 8.335-1.87 9.4-.13.238-.346 1.21-.482 2.158-.14.967-.62 2.488-1.095 3.463-.467.956-1.22 2.557-1.675 3.557-.455 1-1.363 2.638-2.017 3.638-.655 1-1.715 2.636-2.355 3.636-.64 1-1.667 2.43-2.282 3.18s-1.118 1.46-1.118 1.578c0 .118-.233.46-.517.762-.488.517-2.838 4.02-5.628 8.385-1.2 1.878-3.06 4.54-4.575 6.546-.4.53-1.554 2.145-2.566 3.592-2.267 3.238-4.22 5.934-4.8 6.624-.453.537-1.163 1.437-3.91 4.958-.88 1.132-1.79 2.408-2.02 2.837-.23.43-.87 1.33-1.42 2-.553.672-1.715 2.19-2.584 3.373-.868 1.183-2.293 2.972-3.166 3.976-.874 1.003-1.924 2.263-2.334 2.8-.93 1.216-1.817 1.285-2.926.227zm2.834-4.8c.397-.62 1.063-1.482 1.48-1.913.417-.43 1.08-1.326 1.474-1.99.394-.662.82-1.204.948-1.204s.49-.497.802-1.105c.313-.607 1.066-1.747 1.674-2.533 1.12-1.448 2.107-2.817 4.41-6.107 1.847-2.64 3.196-4.474 3.777-5.136.742-.846 5.367-7.69 5.367-7.943 0-.117.66-1.08 1.467-2.142.807-1.062 1.894-2.69 2.415-3.62.93-1.658 1.277-2.148 4.156-5.886.788-1.024 1.433-1.962 1.433-2.085s.472-.79 1.05-1.482c.58-.69 1.053-1.358 1.053-1.48 0-.122.34-.607.755-1.076.415-.47.992-1.32 1.284-1.893.29-.572 1.148-2.15 1.904-3.508s1.725-3.112 2.154-3.898c.428-.786.89-1.54 1.024-1.676.135-.136.246-.5.246-.808 0-.31.34-1.31.755-2.222.415-.913.9-2.303 1.077-3.09.177-.785.538-2.306.803-3.378 1.336-5.416 1.797-12.743 1.086-17.28-.155-1-.388-2.7-.514-3.777-.168-1.423-.576-2.737-1.495-4.807-1.12-2.53-1.467-3.045-3.1-4.604-2.096-1.998-5.214-3.723-7.625-4.215-.837-.17-2.485-.254-3.676-.186-1.814.104-2.415.262-3.75.986-.872.474-2.1 1.04-2.726 1.26-.627.218-1.494.69-1.926 1.05-.432.358-.99.652-1.244.652-.252 0-.93.398-1.505.885-.576.486-1.94 1.45-3.032 2.143-2.045 1.298-4.03 2.894-6.41 5.157-2.055 1.953-4.167 3.685-5.3 4.347-1.42.828-4.21.83-5.88.006-3.08-1.52-4.834-2.736-6.917-4.797-.548-.543-1.575-1.276-2.282-1.63-.707-.354-1.358-.87-1.447-1.148-.19-.597-.65-.962-4.537-3.606-4.34-2.953-6.93-4.562-7.967-4.952-1.39-.523-4.472-.86-5.39-.59-6.168 1.816-7.65 2.608-10.285 5.498-2.23 2.448-3.593 5.23-4.95 10.12-.766 2.76-.696 7.857.206 14.94.492 3.865.668 4.752 1.12 5.64.196.386.357.954.357 1.262 0 .854 1.29 4.857 2.14 6.637.414.87.754 1.73.754 1.91 0 .18.503.88 1.118 1.555.615.676 1.77 2.253 2.565 3.505.796 1.252 2.63 3.776 4.078 5.61 1.447 1.834 3.19 4.075 3.874 4.98.683.903 1.656 2.17 2.16 2.813.505.643 1.755 2.397 2.778 3.898 1.022 1.5 2.143 3.08 2.49 3.508 1.372 1.694 2.784 3.42 3.504 4.287.416.5 1.3 1.67 1.963 2.6.664.93 1.527 1.98 1.917 2.338.39.358 1.374 1.527 2.187 2.6.814 1.07 2.43 3.1 3.59 4.506 1.836 2.226 3.246 3.963 5.71 7.037.335.42 1.458 1.94 2.495 3.38 1.037 1.44 2.078 2.88 2.314 3.202.64.873 1.242.712 2.047-.545zm-21.303-42.06c-.15-.185-.648-1.27-1.103-2.415-1.824-4.582-2.416-5.723-3.2-6.167-1.63-.924-.723-1.442 2.917-1.665.94-.058 2.65-.202 3.802-.32 2.847-.295 3.715-.025 2.56.797-.87.617-.878 1.222-.042 2.952.44.91.92 1.727 1.066 1.816.422.258.964-.347 1.123-1.256.08-.46.228-1.234.327-1.722.16-.79.083-.968-.71-1.626-.864-.716-.876-.75-.38-1.127.328-.25 1.102-.388 2.177-.388 2.058 0 2.32.386 1.158 1.693-.447.503-.878 1.176-.957 1.495-.078.32-.546 2.203-1.037 4.186-.49 1.985-1.017 3.73-1.168 3.88-.475.47-1.234-.5-1.85-2.363-1.032-3.12-1.88-3.764-2.387-1.81-1.068 4.128-1.54 4.96-2.294 4.04zm1.734-5.885c.694-1.88.697-2.136.025-2.847-.884-.938-2.62-.7-2.62.36 0 .663.927 3.156 1.37 3.683.464.553.645.377 1.225-1.196zm11.096 4.85c-.674-.714-.672-1.01.01-1.864.673-.846 1.548-.877 2.303-.084.734.772.73 1.6-.013 2.113-.817.565-1.67.504-2.3-.165zm9.813-.356c-.094-.243.123-.694.542-1.126.697-.72.698-.725.52-3.687-.205-3.455-.38-4.057-1.28-4.394-.722-.273-.86-.817-.315-1.263.19-.156.99-.358 1.777-.45 1.73-.2 2.24.15 3.073 2.1 1.497 3.51 1.755 4.014 2.124 4.154.217.083.497.052.62-.07.21-.206.825-2.07 1.687-5.106.433-1.524.64-1.683 2.277-1.745.687-.027 1.443-.058 1.68-.07.238-.012.562.18.72.428.236.37.134.58-.57 1.17l-.858.72.29 3.5c.16 1.924.347 3.59.417 3.702.07.11.42.203.778.203.763 0 1.096.62.632 1.172-.245.292-.927.387-2.776.387-2.826 0-3.24-.265-1.987-1.275l.838-.677-.18-2.54c-.118-1.65-.282-2.508-.468-2.447-.365.12-1.948 4.618-2.054 5.836-.048.556-.273 1.032-.567 1.205-.662.39-1.192-.33-2.777-3.767-.686-1.486-1.357-2.675-1.49-2.64-.302.076-.47 2.74-.246 3.918.117.62.42 1.012 1.08 1.397 1.2.7 1.085 1.313-.293 1.555-1.834.32-3.025.25-3.197-.192zm18.846-.554c-.94-.636-1.076-.897-.917-1.77.19-1.033.842-1.486 1.84-1.276 1.138.24 1.452.575 1.452 1.55 0 .618-.194 1.01-.693 1.397-.837.65-.864.652-1.682.1zM21.52 41.832c-.424-.306-.458-.443-.187-.765.182-.216.62-.465.973-.552.874-.217 1.036-1.055.67-3.47-.166-1.105-.327-2.645-.358-3.423-.054-1.366-.085-1.42-.927-1.635-.697-.178-.855-.337-.79-.795.078-.534.27-.586 2.834-.767 1.63-.115 2.85-.096 2.995.047.376.373-.01 1.056-.598 1.056-.945 0-1.157.904-.99 4.213.183 3.584.497 4.462 1.632 4.564 1.664.15 3.198-1.486 2.953-3.148-.124-.84.38-1.19.995-.688.284.233.39.87.39 2.328 0 2.747-.028 2.766-4.472 2.95-1.953.08-3.788.218-4.078.304-.29.087-.758-.01-1.042-.217zM32.828 40.3c-.3-.696-.305-.936-.023-1.364.476-.725 1.33-.782 1.988-.132.86.85.246 2.34-.963 2.34-.47 0-.734-.222-1.002-.844zm7.354.054c-.232-.372.295-.945 1.04-1.13.452-.112.665-.4.792-1.07.096-.503.09-1.052-.016-1.22-.104-.166-.176-1.07-.16-2.008.05-2.71-.21-3.676-1.124-4.176-1.36-.744-1.013-1.146 1.185-1.37 2.59-.262 3.814-.162 3.814.315 0 .205-.397.475-.883.6l-.882.225.094 4.023c.103 4.39.15 4.516 1.672 4.516 1.415 0 1.996-.516 2.696-2.396.36-.964.755-1.754.88-1.754.558 0 1.028 1.303 1.075 2.978.075 2.68-.043 2.74-5.585 2.74-2.792 0-4.49-.1-4.598-.272zm12.307-.517c-.45-.177-.593-.445-.593-1.1 0-1 .393-1.49 1.196-1.49 1.12 0 1.75 1.273 1.163 2.356-.293.54-.822.61-1.767.235zm11.738-.706c-.372-.446-1.093-2.537-1.948-5.653-.618-2.247-1.19-3.256-2.172-3.838-1.574-.934-.343-1.862 2.16-1.632 1.788.165 1.93.24 1.47.79-.74.88.548 5.07 1.558 5.07.645 0 .95-.546 1.18-2.103.224-1.535-.14-2.443-1.195-2.982-.776-.397-.805-.454-.35-.706.273-.15 1.46-.316 2.638-.367 1.65-.072 2.216-.006 2.463.287.265.314.175.455-.513.806-.754.386-.817.51-.666 1.305.093.483.34 1.205.55 1.604.212.4.385.934.386 1.19 0 .642.793.89 1.18.367.17-.233.465-1.267.65-2.297.354-1.953.262-2.233-.88-2.65-.648-.24.307-.665 1.875-.838 1.402-.154 1.665-.117 1.81.258.11.28-.07.69-.498 1.137-.488.51-.898 1.577-1.515 3.948-.465 1.786-.945 3.825-1.067 4.53-.12.705-.41 1.465-.64 1.69-.382.37-.464.354-.894-.164-.26-.313-.673-1.353-.916-2.31-.535-2.104-1.09-3.227-1.6-3.227-.38 0-.502.345-1.343 3.768-.608 2.477-.975 2.907-1.72 2.014zm12.945-1.01c-.653-.82-.683-1.222-.132-1.766.555-.547 1.512-.516 2.046.067.58.632.55 1.232-.09 1.864-.706.697-1.17.655-1.823-.165z"/>
</svg>
