<?xml version="1.0" encoding="utf-8"?>
<svg
   xmlns="http://www.w3.org/2000/svg"
   version="1.1"
   viewBox="0 0 100 110"
   height="110"
   width="100">

  <path
     d="m 50.442818,109.2568 c -0.7689,-0.73441 -1.2922,-1.34435 -3.5945,-4.19019 -1.7758,-2.19509 -5.9496,-7.663308 -6.9959,-9.165587 -0.9739,-1.398353 -2.8591,-3.745819 -3.9082,-4.866454 -0.3345,-0.357307 -1.1144,-1.305333 -1.7332,-2.106736 -0.6188,-0.801433 -2.2498,-2.894785 -3.6244,-4.651908 -1.3747,-1.757123 -2.8545,-3.694578 -3.2886,-4.305465 -0.4341,-0.610897 -1.0285,-1.382413 -1.3208,-1.714504 -1.0177,-1.156261 -3.7277,-4.775389 -5.1219,-6.840257 -2.2031,-3.262858 -4.5245,-6.412725 -5.4579,-7.405799 -0.4701,-0.500226 -0.8558,-0.98135 -0.8571,-1.069156 0,-0.08781 -0.3671,-0.555567 -0.8131,-1.039407 -0.4459,-0.48387 -1.2671,-1.558617 -1.8247,-2.388356 -0.5577,-0.82975 -1.3869,-1.882145 -1.8427,-2.338676 -0.4558,-0.456531 -1.0114,-1.180854 -1.2346,-1.609611 -0.2232,-0.428757 -0.9276,-1.521884 -1.5652,-2.429188 -1.7247,-2.454018 -2.5105,-4.160057 -3.9679,-8.614555 -1.2806,-3.914152 -1.9468,-6.652339 -2.83310007,-11.644585 -0.5957,-3.35506 -0.6164,-11.980134 -0.034,-14.340667 C 1.524018,14.078356 3.077618,10.724848 5.283618,8.0480646 c 5.5052,-6.6797372 13.7472,-9.4753878 20.3531,-6.9036369 2.5425,0.989805 13.4325,7.8718119 14.5531,9.1969293 0.6816,0.805916 7.8411,6.266408 8.9936,6.859299 0.7429,0.382207 2.1639,0.363322 2.8891,-0.03842 0.7693,-0.42612 2.4748,-2.048551 4.6675,-4.440206 3.1911,-3.4806654 13.0649,-9.9370459 17.7832,-11.6283292 2.5845,-0.926415 3.5119,-1.09403609706 6.0511,-1.09370029705932 C 83.222918,4.2520294e-4 85.587218,0.4017638 86.550318,1.0146263 c 0.3205,0.2039187 0.703,0.3707694 0.85,0.3707694 0.1469,0 0.9339,0.4212603 1.7489,0.9361438 1.8959,1.1978722 4.9371,4.173016 6.4805,6.3397241 1.96,2.7517494 3.5503,7.4759954 4.1548,12.3430034 0.288102,2.318882 0.287402,8.695111 0,11.563436 -0.3687,3.665511 -1.2982,8.335385 -1.8708,9.399118 -0.1285,0.238805 -0.3449,1.210258 -0.4809,2.158778 -0.1387,0.967453 -0.6195,2.488054 -1.0952,3.463597 -0.4663,0.95645 -1.22,2.557538 -1.6749,3.55797 -0.455,1.000433 -1.3627,2.637512 -2.0171,3.637944 -0.6545,1.000433 -1.7142,2.636376 -2.3549,3.635435 -0.6407,0.99906 -1.668,2.42985 -2.283,3.179517 -0.615,0.749688 -1.1181,1.459581 -1.1181,1.577571 0,0.117999 -0.2326,0.461103 -0.5169,0.762458 -0.4874,0.51675 -2.8382,4.019331 -5.6276,8.385065 -1.1996,1.877503 -3.0606,4.539973 -4.5756,6.546123 -0.3984,0.527605 -1.5531,2.1433 -2.566,3.590436 -2.2667,3.238324 -4.2205,5.934287 -4.8007,6.623932 -0.4516,0.536919 -1.1616,1.437812 -3.9075,4.958527 -0.8825,1.131628 -1.7923,2.408288 -2.0217,2.837045 -0.2293,0.428757 -0.8687,1.328771 -1.4208,1.999992 -0.5522,0.67126 -1.7142,2.188479 -2.5824,3.371639 -0.8682,1.18314 -2.2933,2.97263 -3.1668,3.9766 -0.8736,1.00399 -1.9235,2.26394 -2.3333,2.79988 -0.9305,1.217 -1.8176,1.28598 -2.926,0.22744 z m 2.8338,-4.80014 c 0.3971,-0.6208 1.0633,-1.4815 1.4805,-1.91268 0.4172,-0.43117 1.0803,-1.32625 1.4736,-1.98904 0.3932,-0.662809 0.8197,-1.205089 0.9477,-1.205089 0.128,0 0.4887,-0.49696 0.8016,-1.104374 0.3128,-0.607411 1.0659,-1.747513 1.6735,-2.533557 1.1193,-1.447985 2.1078,-2.816679 4.4102,-6.106541 1.8475,-2.639704 3.1963,-4.473896 3.7772,-5.13637 0.7407,-0.844753 5.3664,-7.690136 5.3664,-7.941533 0,-0.117239 0.66,-1.081502 1.4667,-2.142767 0.8066,-1.061274 1.8935,-2.689681 2.4153,-3.618644 0.9315,-1.65863 1.2777,-2.149039 4.1569,-5.88755 0.7878,-1.022922 1.4324,-1.960538 1.4324,-2.083604 0,-0.123046 0.4736,-0.789758 1.0524,-1.481557 0.5788,-0.691808 1.0523,-1.357967 1.0523,-1.480342 0,-0.122385 0.3395,-0.60662 0.7544,-1.07608 0.4149,-0.469459 0.9927,-1.321304 1.2838,-1.892979 0.2912,-0.571676 1.1481,-2.150284 1.9042,-3.508004 0.7562,-1.35774 1.7255,-3.111741 2.1541,-3.897795 0.4286,-0.786055 0.8897,-1.540276 1.0246,-1.676053 0.135,-0.135769 0.2455,-0.499634 0.2455,-0.808574 0,-0.30895 0.3396,-1.308731 0.7546,-2.221743 0.4151,-0.913012 0.8997,-2.303158 1.0771,-3.089212 0.1773,-0.786054 0.5387,-2.30619 0.8031,-3.378082 1.3362,-5.416243 1.7969,-12.743708 1.0864,-17.280195 -0.1566,-1.000432 -0.3887,-2.70023 -0.5156,-3.777327 -0.1677,-1.423263 -0.5759,-2.736784 -1.4942,-4.807272 -1.1223,-2.5308604 -1.4687,-3.0447964 -3.1024,-4.6035215 -2.0947,-1.9985343 -5.2132,-3.7227966 -7.624,-4.2154176 -0.8367,-0.1709891 -2.4849,-0.2545972 -3.6761,-0.1864959 -1.8133,0.103678 -2.4137,0.2615901 -3.7474,0.9856568 -0.8734,0.4742005 -2.1009,1.0409082 -2.7278,1.259346 -0.6268,0.2184379 -1.4932,0.6909297 -1.9252,1.0499654 -0.432,0.3590456 -0.9918,0.6528047 -1.2441,0.6528047 -0.2522,0 -0.9295,0.3980891 -1.505,0.8846456 -0.5755,0.4865561 -1.9396,1.4512641 -3.0312,2.1437855 -2.0453,1.297569 -4.0295,2.893669 -6.4109,5.156924 -2.0545,1.952617 -4.1665,3.684593 -5.2999,4.346139 -1.4191,0.828327 -4.2084,0.831596 -5.8798,0.0069 -3.0784,-1.51896 -4.8333,-2.736092 -6.9169,-4.797513 -0.5485,-0.542687 -1.5757,-1.276186 -2.2826,-1.629987 -0.7068,-0.353801 -1.3582,-0.870334 -1.4474,-1.147856 -0.1919,-0.597355 -0.6512,-0.962357 -4.5373,-3.6057164 -4.3399,-2.9520711 -6.9293,-4.5612475 -7.9678,-4.9515634 -1.391,-0.5228048 -4.4711,-0.8601508 -5.3882,-0.5901456 -6.1696,1.8164336 -7.652,2.6087991 -10.2868,5.498537 -2.2319,2.4479054 -3.5934,5.2311504 -4.9501,10.1193634 -0.7665,2.761586 -0.6964,7.857174 0.2055,14.941519 0.4918,3.863721 0.668,4.750539 1.12,5.638889 0.1964,0.38593 0.3571,0.953695 0.3571,1.261687 0,0.854145 1.2898,4.856933 2.1385,6.63692 0.4155,0.871361 0.7555,1.731186 0.7555,1.910719 0,0.179543 0.5031,0.879223 1.1181,1.554844 0.615,0.67563 1.7693,2.252687 2.5651,3.504576 0.7959,1.251869 2.631,3.776635 4.078,5.610551 1.447,1.833916 3.1901,4.074385 3.8736,4.978814 0.6834,0.904429 1.6557,2.17062 2.1606,2.813765 0.5048,0.643125 1.7546,2.397137 2.7772,3.897796 1.0226,1.500639 2.1434,3.079246 2.4906,3.508003 1.3718,1.694118 2.7835,3.42164 3.5036,4.287568 0.4159,0.500207 1.2995,1.669545 1.9634,2.598528 0.664,0.928963 1.5265,1.981368 1.9167,2.338675 0.3902,0.357288 1.3744,1.526625 2.1871,2.598527 0.8127,1.071882 2.4276,3.100077 3.5885,4.507113 1.8364,2.225663 3.2464,3.963141 5.7106,7.03736 0.3353,0.41833 1.458,1.938469 2.4949,3.378089 1.0368,1.4396 2.0783,2.88058 2.3143,3.20215 0.6407,0.87288 1.243,0.71254 2.0473,-0.54498 z m -21.303,-42.0597 c -0.1511,-0.184777 -0.6473,-1.271425 -1.1026,-2.414777 -1.8248,-4.582592 -2.4166,-5.722822 -3.2005,-6.167194 -1.6305,-0.924262 -0.7236,-1.442217 2.9161,-1.665386 0.9405,-0.05768 2.6516,-0.201953 3.8024,-0.320634 2.848,-0.29373 3.7155,-0.02351 2.5602,0.797639 -0.869,0.617683 -0.8775,1.222328 -0.041,2.952842 0.4396,0.909733 0.919,1.727127 1.0653,1.816453 0.4227,0.258005 0.964,-0.346936 1.1237,-1.255652 0.081,-0.459474 0.2278,-1.234564 0.3269,-1.722425 0.1606,-0.790548 0.083,-0.967394 -0.711,-1.626056 -0.8634,-0.715977 -0.8753,-0.751119 -0.3805,-1.126837 0.3293,-0.250034 1.1033,-0.387807 2.1787,-0.387807 2.0562,0 2.3196,0.385426 1.1571,1.69309 -0.4473,0.503249 -0.8784,1.175906 -0.9579,1.494861 -0.079,0.318956 -0.5462,2.20276 -1.0373,4.186251 -0.491,1.983482 -1.0169,3.728881 -1.1685,3.878645 -0.4752,0.469311 -1.2338,-0.499812 -1.8498,-2.363121 -1.0317,-3.120354 -1.8812,-3.764082 -2.387,-1.80874 -1.0677,4.127306 -1.5407,4.960078 -2.294,4.038848 z m 1.7348,-5.884517 c 0.6939,-1.879586 0.6962,-2.136149 0.025,-2.847643 -0.8842,-0.937487 -2.6206,-0.699631 -2.6206,0.358947 0,0.664223 0.9267,3.157087 1.3695,3.684089 0.4649,0.553335 0.6456,0.377219 1.2261,-1.195393 z m 11.0954,4.84993 c -0.6737,-0.714199 -0.6723,-1.009618 0.01,-1.86484 0.673,-0.845089 1.5482,-0.876724 2.3029,-0.08326 0.7338,0.771515 0.7288,1.599319 -0.013,2.112316 -0.8166,0.564959 -1.6686,0.504108 -2.299,-0.164194 z m 9.8132,-0.35628 c -0.094,-0.242873 0.1228,-0.694208 0.5417,-1.126165 0.6982,-0.719751 0.699,-0.725341 0.5225,-3.687368 -0.2059,-3.454649 -0.3812,-4.0564 -1.2802,-4.393963 -0.7234,-0.271664 -0.8598,-0.815734 -0.3162,-1.261321 0.1904,-0.156075 0.9901,-0.358522 1.7771,-0.449884 1.7298,-0.200807 2.2407,0.148174 3.073,2.09921 1.4969,3.508931 1.7553,4.014294 2.124,4.154032 0.2185,0.08277 0.4981,0.05096 0.6214,-0.07072 0.2088,-0.20624 0.8248,-2.070715 1.687,-5.106069 0.4328,-1.523553 0.641,-1.683174 2.2762,-1.745043 0.6873,-0.02598 1.4439,-0.05699 1.6814,-0.06894 0.2374,-0.01185 0.5611,0.180886 0.7192,0.428441 0.2359,0.369406 0.1336,0.579054 -0.5704,1.169338 l -0.8577,0.719237 0.2901,3.499805 c 0.1595,1.924902 0.3473,3.591206 0.4172,3.702895 0.07,0.111717 0.4198,0.203099 0.7775,0.203099 0.7617,0 1.0955,0.620122 0.6312,1.172646 -0.2449,0.291468 -0.9274,0.386474 -2.7764,0.386474 -2.8258,0 -3.2392,-0.265235 -1.9867,-1.274853 l 0.8392,-0.676539 -0.1808,-2.540984 c -0.1174,-1.649642 -0.2814,-2.507867 -0.4676,-2.446581 -0.3651,0.120192 -1.9479,4.618366 -2.0538,5.836624 -0.048,0.5561 -0.2725,1.032918 -0.5669,1.205942 -0.6611,0.388469 -1.1913,-0.331035 -2.7765,-3.767381 -0.6857,-1.486446 -1.3567,-2.674738 -1.491,-2.640643 -0.3006,0.07625 -0.4672,2.741624 -0.245,3.918449 0.1172,0.620527 0.4202,1.012176 1.0812,1.397366 1.2007,0.69971 1.0847,1.31279 -0.294,1.55433 -1.834,0.321306 -3.0252,0.249935 -3.1967,-0.191454 z m 18.8462,-0.554114 c -0.9405,-0.635708 -1.0762,-0.897427 -0.9172,-1.769054 0.1886,-1.033985 0.8418,-1.487148 1.8401,-1.27675 1.1378,0.239792 1.4521,0.575252 1.4521,1.54955 0,0.618285 -0.1941,1.009648 -0.6932,1.397386 -0.837,0.650296 -0.8637,0.651876 -1.6818,0.09887 z m -51.9433,-18.618912 c -0.4242,-0.307409 -0.4575,-0.444066 -0.1865,-0.766507 0.1813,-0.215821 0.619,-0.464127 0.9726,-0.551784 0.8743,-0.216729 1.0363,-1.054746 0.6712,-3.471242 -0.1669,-1.103962 -0.3284,-2.643427 -0.3591,-3.421047 -0.054,-1.3665 -0.085,-1.421278 -0.9276,-1.635794 -0.6974,-0.177558 -0.8552,-0.336517 -0.7892,-0.794894 0.077,-0.534262 0.2682,-0.586067 2.8327,-0.766972 1.6298,-0.114977 2.8498,-0.09561 2.9947,0.04751 0.3769,0.372231 -0.01,1.056 -0.5971,1.056 -0.9451,0 -1.1571,0.90356 -0.9887,4.212968 0.1824,3.582357 0.4964,4.460948 1.6307,4.562779 1.6643,0.149408 3.1987,-1.486051 2.9536,-3.14802 -0.1241,-0.841187 0.381,-1.190543 0.9943,-0.687779 0.2845,0.233214 0.3913,0.868349 0.3913,2.327465 0,2.746968 -0.029,2.766 -4.4726,2.950106 -1.9534,0.08089 -3.7885,0.217836 -4.0779,0.304229 -0.2894,0.08642 -0.7585,-0.01126 -1.0424,-0.217006 z m 11.3078,-1.534714 c -0.3003,-0.696046 -0.3043,-0.935897 -0.023,-1.364229 0.4764,-0.725094 1.331,-0.782084 1.9885,-0.132617 0.8598,0.849187 0.2461,2.341362 -0.963,2.341362 -0.4699,0 -0.7343,-0.222725 -1.0026,-0.844516 z m 7.3546,0.05353 c -0.2328,-0.372093 0.2949,-0.945201 1.0405,-1.130048 0.4512,-0.111836 0.6641,-0.399511 0.7913,-1.069324 0.096,-0.503979 0.089,-1.05275 -0.016,-1.219502 -0.1044,-0.166742 -0.1759,-1.070994 -0.159,-2.009439 0.049,-2.709 -0.2115,-3.675446 -1.1249,-4.175445 -1.3601,-0.744562 -1.0128,-1.14593 1.185,-1.369267 2.5911,-0.263298 3.8148,-0.162603 3.8148,0.313928 0,0.205401 -0.397,0.474872 -0.8828,0.599203 l -0.8828,0.225944 0.094,4.022848 c 0.1024,4.387759 0.1495,4.515122 1.6718,4.515409 1.4149,2.07e-4 1.9957,-0.51597 2.6955,-2.395833 0.3591,-0.964698 0.7551,-1.754002 0.88,-1.754002 0.5582,0 1.0286,1.302686 1.0754,2.977722 0.075,2.681167 -0.043,2.739036 -5.5853,2.739036 -2.792,0 -4.4906,-0.100211 -4.5976,-0.27123 z m 12.3066,-0.516425 c -0.4478,-0.177794 -0.5919,-0.445804 -0.5919,-1.1009 0,-0.999682 0.3932,-1.489528 1.1957,-1.489528 1.121,0 1.7494,1.273164 1.1628,2.355753 -0.2923,0.539467 -0.8217,0.609791 -1.7666,0.234675 z m 11.7386,-0.706495 c -0.3713,-0.445044 -1.0921,-2.536362 -1.948,-5.651798 -0.6173,-2.24683 -1.1882,-3.255747 -2.172,-3.838662 -1.5734,-0.932164 -0.3428,-1.860949 2.1602,-1.630481 1.7883,0.164648 1.931,0.241234 1.4706,0.789136 -0.7394,0.879993 0.5479,5.06979 1.5577,5.06979 0.6446,0 0.9502,-0.54486 1.1786,-2.10162 0.2253,-1.535801 -0.138,-2.443509 -1.1938,-2.982768 -0.7773,-0.397033 -0.8057,-0.454052 -0.3504,-0.705706 0.2724,-0.150574 1.4594,-0.315883 2.6377,-0.367342 1.6486,-0.072 2.2162,-0.0059 2.4624,0.28729 0.2642,0.314402 0.1746,0.455167 -0.5134,0.806548 -0.7541,0.38518 -0.8175,0.509284 -0.6665,1.304474 0.092,0.483337 0.3394,1.2053 0.5501,1.604357 0.2108,0.399066 0.3839,0.933882 0.3848,1.188469 0,0.642859 0.7936,0.890028 1.1797,0.368478 0.172,-0.232325 0.4653,-1.265638 0.6518,-2.296244 0.3534,-1.953229 0.2605,-2.232854 -0.8806,-2.650915 -0.6485,-0.237589 0.3063,-0.663758 1.8744,-0.836653 1.4015,-0.154525 1.6645,-0.117111 1.81,0.25755 0.109,0.280544 -0.071,0.690021 -0.4988,1.137435 -0.4884,0.510252 -0.8976,1.576405 -1.5149,3.94723 -0.4652,1.786487 -0.9452,3.824983 -1.0669,4.529997 -0.1216,0.705015 -0.41,1.465083 -0.641,1.689042 -0.3817,0.370196 -0.4628,0.35542 -0.8933,-0.162634 -0.2604,-0.313414 -0.6725,-1.352791 -0.9159,-2.309726 -0.5352,-2.104286 -1.0914,-3.226966 -1.5988,-3.226966 -0.3804,0 -0.5033,0.344487 -1.3438,3.767856 -0.6081,2.477199 -0.975,2.906756 -1.7199,2.013863 z m 12.9453,-1.00949 c -0.6531,-0.820011 -0.683,-1.220994 -0.1319,-1.76537 0.5544,-0.547596 1.5108,-0.516325 2.0452,0.06687 0.5786,0.63151 0.5494,1.231157 -0.091,1.863467 -0.7053,0.696659 -1.1698,0.654612 -1.8225,-0.164964 z" />
</svg>
